{
    "asset" : {
        "generator" : "Khronos glTF Blender I/O v3.4.49",
        "version" : "2.0"
    },
    "scene" : 0,
    "scenes" : [
        {
            "name" : "Scene",
            "nodes" : [
                0,
                1,
                2,
                3,
                4,
                5,
                6
            ]
        }
    ],
    "nodes" : [
        {
            "mesh" : 0,
            "name" : "BonecoPassista_Circle"
        },
        {
            "mesh" : 1,
            "name" : "Text",
            "rotation" : [
                0.5,
                0.5,
                -0.5,
                0.5
            ],
            "scale" : [
                0.8492189645767212,
                0.8492189645767212,
                0.8492189645767212
            ],
            "translation" : [
                -0.03101402148604393,
                0.1318984031677246,
                0.12372156977653503
            ]
        },
        {
            "mesh" : 2,
            "name" : "Text.001",
            "rotation" : [
                0.5,
                0.5,
                -0.5,
                0.4999999701976776
            ],
            "scale" : [
                0.6599956750869751,
                0.6599956750869751,
                0.6599956750869751
            ],
            "translation" : [
                -0.02197575941681862,
                0.11620783805847168,
                0.12081984430551529
            ]
        },
        {
            "mesh" : 3,
            "name" : "Text.002",
            "rotation" : [
                0.5,
                0.5,
                -0.5,
                0.4999999701976776
            ],
            "scale" : [
                0.7779272794723511,
                0.7779272794723511,
                0.7779272794723511
            ],
            "translation" : [
                0.034712571650743484,
                0.0006599468179047108,
                0.06580227613449097
            ]
        },
        {
            "mesh" : 4,
            "name" : "Text.003",
            "rotation" : [
                0.5,
                0.5,
                -0.5,
                0.4999999701976776
            ],
            "scale" : [
                0.7779272794723511,
                0.7779272794723511,
                0.7779272794723511
            ],
            "translation" : [
                0.03411285951733589,
                0.0006599468179047108,
                0.06580227613449097
            ]
        },
        {
            "mesh" : 5,
            "name" : "Text.004",
            "rotation" : [
                0.5,
                0.5,
                -0.5,
                0.5
            ],
            "scale" : [
                0.8492189645767212,
                0.8492189645767212,
                0.8492189645767212
            ],
            "translation" : [
                -0.030231451615691185,
                0.1318984031677246,
                0.12372156977653503
            ]
        },
        {
            "mesh" : 6,
            "name" : "Text.005",
            "rotation" : [
                0.5,
                0.5,
                -0.5,
                0.4999999701976776
            ],
            "scale" : [
                0.6599956750869751,
                0.6599956750869751,
                0.6599956750869751
            ],
            "translation" : [
                -0.021483005955815315,
                0.11620783805847168,
                0.12081984430551529
            ]
        }
    ],
    "materials" : [
        {
            "doubleSided" : true,
            "name" : "BonecoPassista",
            "pbrMetallicRoughness" : {
                "baseColorTexture" : {
                    "index" : 0
                },
                "metallicFactor" : 0,
                "roughnessFactor" : 0.5
            }
        },
        {
            "doubleSided" : true,
            "name" : "Material",
            "pbrMetallicRoughness" : {
                "baseColorFactor" : [
                    1,
                    0.8110767006874084,
                    0.01759454421699047,
                    1
                ],
                "metallicFactor" : 0,
                "roughnessFactor" : 0.5
            }
        },
        {
            "doubleSided" : true,
            "name" : "Material.001",
            "pbrMetallicRoughness" : {
                "baseColorFactor" : [
                    0.011612245813012123,
                    0.15896087884902954,
                    0.42326778173446655,
                    1
                ],
                "metallicFactor" : 0,
                "roughnessFactor" : 0.5
            }
        },
        {
            "doubleSided" : true,
            "name" : "Material.003",
            "pbrMetallicRoughness" : {
                "baseColorFactor" : [
                    0.011612245813012123,
                    0.15896087884902954,
                    0.42326778173446655,
                    1
                ],
                "metallicFactor" : 0,
                "roughnessFactor" : 0.5
            }
        },
        {
            "doubleSided" : true,
            "name" : "Material.004",
            "pbrMetallicRoughness" : {
                "baseColorFactor" : [
                    1,
                    0.8110767006874084,
                    0.01759454421699047,
                    1
                ],
                "metallicFactor" : 0,
                "roughnessFactor" : 0.5
            }
        }
    ],
    "meshes" : [
        {
            "name" : "BonecoPassista_Circle",
            "primitives" : [
                {
                    "attributes" : {
                        "POSITION" : 0,
                        "TEXCOORD_0" : 1,
                        "NORMAL" : 2
                    },
                    "indices" : 3,
                    "material" : 0
                }
            ]
        },
        {
            "name" : "Text",
            "primitives" : [
                {
                    "attributes" : {
                        "POSITION" : 4,
                        "TEXCOORD_0" : 5,
                        "NORMAL" : 6
                    },
                    "indices" : 7,
                    "material" : 1
                }
            ]
        },
        {
            "name" : "Text.001",
            "primitives" : [
                {
                    "attributes" : {
                        "POSITION" : 8,
                        "TEXCOORD_0" : 9,
                        "NORMAL" : 10
                    },
                    "indices" : 11,
                    "material" : 2
                }
            ]
        },
        {
            "name" : "Text.002",
            "primitives" : [
                {
                    "attributes" : {
                        "POSITION" : 12,
                        "TEXCOORD_0" : 13,
                        "NORMAL" : 14
                    },
                    "indices" : 15,
                    "material" : 1
                }
            ]
        },
        {
            "name" : "Text.003",
            "primitives" : [
                {
                    "attributes" : {
                        "POSITION" : 16,
                        "TEXCOORD_0" : 17,
                        "NORMAL" : 18
                    },
                    "indices" : 19,
                    "material" : 2
                }
            ]
        },
        {
            "name" : "Text.006",
            "primitives" : [
                {
                    "attributes" : {
                        "POSITION" : 20,
                        "TEXCOORD_0" : 21,
                        "NORMAL" : 22
                    },
                    "indices" : 23,
                    "material" : 3
                }
            ]
        },
        {
            "name" : "Text.007",
            "primitives" : [
                {
                    "attributes" : {
                        "POSITION" : 24,
                        "TEXCOORD_0" : 25,
                        "NORMAL" : 26
                    },
                    "indices" : 27,
                    "material" : 4
                }
            ]
        }
    ],
    "textures" : [
        {
            "sampler" : 0,
            "source" : 0
        }
    ],
    "images" : [
        {
            "bufferView" : 4,
            "mimeType" : "image/png",
            "name" : "Passista_Color"
        }
    ],
    "accessors" : [
        {
            "bufferView" : 0,
            "componentType" : 5126,
            "count" : 868,
            "max" : [
                0.04481138288974762,
                0.10235201567411423,
                0.10666491091251373
            ],
            "min" : [
                -0.05571497976779938,
                6.904142355779186e-05,
                -0.1274588704109192
            ],
            "type" : "VEC3"
        },
        {
            "bufferView" : 1,
            "componentType" : 5126,
            "count" : 868,
            "type" : "VEC2"
        },
        {
            "bufferView" : 2,
            "componentType" : 5126,
            "count" : 868,
            "type" : "VEC3"
        },
        {
            "bufferView" : 3,
            "componentType" : 5123,
            "count" : 1314,
            "type" : "SCALAR"
        },
        {
            "bufferView" : 5,
            "componentType" : 5126,
            "count" : 4700,
            "max" : [
                0.15213724970817566,
                0.003000000026077032,
                0.0008944547735154629
            ],
            "min" : [
                0.0006505110650323331,
                -0.003000000026077032,
                -0.024331271648406982
            ],
            "type" : "VEC3"
        },
        {
            "bufferView" : 6,
            "componentType" : 5126,
            "count" : 4700,
            "type" : "VEC2"
        },
        {
            "bufferView" : 7,
            "componentType" : 5126,
            "count" : 4700,
            "type" : "VEC3"
        },
        {
            "bufferView" : 8,
            "componentType" : 5123,
            "count" : 8628,
            "type" : "SCALAR"
        },
        {
            "bufferView" : 9,
            "componentType" : 5126,
            "count" : 14391,
            "max" : [
                0.21730057895183563,
                0.003000000026077032,
                0.00462715420871973
            ],
            "min" : [
                0.00015745038399472833,
                -0.003000000026077032,
                -0.017154499888420105
            ],
            "type" : "VEC3"
        },
        {
            "bufferView" : 10,
            "componentType" : 5126,
            "count" : 14391,
            "type" : "VEC2"
        },
        {
            "bufferView" : 11,
            "componentType" : 5126,
            "count" : 14391,
            "type" : "VEC3"
        },
        {
            "bufferView" : 12,
            "componentType" : 5123,
            "count" : 26292,
            "type" : "SCALAR"
        },
        {
            "bufferView" : 13,
            "componentType" : 5126,
            "count" : 4105,
            "max" : [
                0.19464941322803497,
                0.003000000026077032,
                0.00021913806267548352
            ],
            "min" : [
                0.0013330898946151137,
                -0.003000000026077032,
                -0.016526661813259125
            ],
            "type" : "VEC3"
        },
        {
            "bufferView" : 14,
            "componentType" : 5126,
            "count" : 4105,
            "type" : "VEC2"
        },
        {
            "bufferView" : 15,
            "componentType" : 5126,
            "count" : 4105,
            "type" : "VEC3"
        },
        {
            "bufferView" : 16,
            "componentType" : 5123,
            "count" : 7632,
            "type" : "SCALAR"
        },
        {
            "bufferView" : 17,
            "componentType" : 5126,
            "count" : 4031,
            "max" : [
                0.19533270597457886,
                0.003000000026077032,
                0.0007191337062977254
            ],
            "min" : [
                0.0008331261924467981,
                -0.003000000026077032,
                -0.0170266255736351
            ],
            "type" : "VEC3"
        },
        {
            "bufferView" : 18,
            "componentType" : 5126,
            "count" : 4031,
            "type" : "VEC2"
        },
        {
            "bufferView" : 19,
            "componentType" : 5126,
            "count" : 4031,
            "type" : "VEC3"
        },
        {
            "bufferView" : 20,
            "componentType" : 5123,
            "count" : 7632,
            "type" : "SCALAR"
        },
        {
            "bufferView" : 21,
            "componentType" : 5126,
            "count" : 4818,
            "max" : [
                0.1512710154056549,
                0.003000000026077032,
                0.0003944485215470195
            ],
            "min" : [
                0.0011504748836159706,
                -0.003000000026077032,
                -0.023831265047192574
            ],
            "type" : "VEC3"
        },
        {
            "bufferView" : 22,
            "componentType" : 5126,
            "count" : 4818,
            "type" : "VEC2"
        },
        {
            "bufferView" : 23,
            "componentType" : 5126,
            "count" : 4818,
            "type" : "VEC3"
        },
        {
            "bufferView" : 24,
            "componentType" : 5123,
            "count" : 8628,
            "type" : "SCALAR"
        },
        {
            "bufferView" : 25,
            "componentType" : 5126,
            "count" : 14418,
            "max" : [
                0.21680061519145966,
                0.003000000026077032,
                0.004127100110054016
            ],
            "min" : [
                0.0006574142025783658,
                -0.003000000026077032,
                -0.016654493287205696
            ],
            "type" : "VEC3"
        },
        {
            "bufferView" : 26,
            "componentType" : 5126,
            "count" : 14418,
            "type" : "VEC2"
        },
        {
            "bufferView" : 27,
            "componentType" : 5126,
            "count" : 14418,
            "type" : "VEC3"
        },
        {
            "bufferView" : 28,
            "componentType" : 5123,
            "count" : 26520,
            "type" : "SCALAR"
        }
    ],
    "bufferViews" : [
        {
            "buffer" : 0,
            "byteLength" : 10416,
            "byteOffset" : 0,
            "target" : 34962
        },
        {
            "buffer" : 0,
            "byteLength" : 6944,
            "byteOffset" : 10416,
            "target" : 34962
        },
        {
            "buffer" : 0,
            "byteLength" : 10416,
            "byteOffset" : 17360,
            "target" : 34962
        },
        {
            "buffer" : 0,
            "byteLength" : 2628,
            "byteOffset" : 27776,
            "target" : 34963
        },
        {
            "buffer" : 0,
            "byteLength" : 1044940,
            "byteOffset" : 30404
        },
        {
            "buffer" : 0,
            "byteLength" : 56400,
            "byteOffset" : 1075344,
            "target" : 34962
        },
        {
            "buffer" : 0,
            "byteLength" : 37600,
            "byteOffset" : 1131744,
            "target" : 34962
        },
        {
            "buffer" : 0,
            "byteLength" : 56400,
            "byteOffset" : 1169344,
            "target" : 34962
        },
        {
            "buffer" : 0,
            "byteLength" : 17256,
            "byteOffset" : 1225744,
            "target" : 34963
        },
        {
            "buffer" : 0,
            "byteLength" : 172692,
            "byteOffset" : 1243000,
            "target" : 34962
        },
        {
            "buffer" : 0,
            "byteLength" : 115128,
            "byteOffset" : 1415692,
            "target" : 34962
        },
        {
            "buffer" : 0,
            "byteLength" : 172692,
            "byteOffset" : 1530820,
            "target" : 34962
        },
        {
            "buffer" : 0,
            "byteLength" : 52584,
            "byteOffset" : 1703512,
            "target" : 34963
        },
        {
            "buffer" : 0,
            "byteLength" : 49260,
            "byteOffset" : 1756096,
            "target" : 34962
        },
        {
            "buffer" : 0,
            "byteLength" : 32840,
            "byteOffset" : 1805356,
            "target" : 34962
        },
        {
            "buffer" : 0,
            "byteLength" : 49260,
            "byteOffset" : 1838196,
            "target" : 34962
        },
        {
            "buffer" : 0,
            "byteLength" : 15264,
            "byteOffset" : 1887456,
            "target" : 34963
        },
        {
            "buffer" : 0,
            "byteLength" : 48372,
            "byteOffset" : 1902720,
            "target" : 34962
        },
        {
            "buffer" : 0,
            "byteLength" : 32248,
            "byteOffset" : 1951092,
            "target" : 34962
        },
        {
            "buffer" : 0,
            "byteLength" : 48372,
            "byteOffset" : 1983340,
            "target" : 34962
        },
        {
            "buffer" : 0,
            "byteLength" : 15264,
            "byteOffset" : 2031712,
            "target" : 34963
        },
        {
            "buffer" : 0,
            "byteLength" : 57816,
            "byteOffset" : 2046976,
            "target" : 34962
        },
        {
            "buffer" : 0,
            "byteLength" : 38544,
            "byteOffset" : 2104792,
            "target" : 34962
        },
        {
            "buffer" : 0,
            "byteLength" : 57816,
            "byteOffset" : 2143336,
            "target" : 34962
        },
        {
            "buffer" : 0,
            "byteLength" : 17256,
            "byteOffset" : 2201152,
            "target" : 34963
        },
        {
            "buffer" : 0,
            "byteLength" : 173016,
            "byteOffset" : 2218408,
            "target" : 34962
        },
        {
            "buffer" : 0,
            "byteLength" : 115344,
            "byteOffset" : 2391424,
            "target" : 34962
        },
        {
            "buffer" : 0,
            "byteLength" : 173016,
            "byteOffset" : 2506768,
            "target" : 34962
        },
        {
            "buffer" : 0,
            "byteLength" : 53040,
            "byteOffset" : 2679784,
            "target" : 34963
        }
    ],
    "samplers" : [
        {
            "magFilter" : 9729,
            "minFilter" : 9987
        }
    ],
    "buffers" : [
        {
            "byteLength" : 2732824,
            "uri" : "data:application/octet-stream;base64,"
        }
    ]
}
